/vscmnt/brussel_pixiu_data/_data_brussel/112/vsc11236/PredSimResults/SUBJ04opt3D/worker_05.mot
version=1
nRows=10
nColumns=50
inDegrees=yes
endheader
                time	         pelvis_tilt	         pelvis_list	     pelvis_rotation	           pelvis_tx	           pelvis_ty	           pelvis_tz	       hip_flexion_r	     hip_adduction_r	      hip_rotation_r	        knee_angle_r	       ankle_angle_r	         mtp_angle_r	       hip_flexion_l	     hip_adduction_l	      hip_rotation_l	        knee_angle_l	       ankle_angle_l	         mtp_angle_l	    lumbar_extension	      lumbar_bending	     lumbar_rotation	 ercspn_r/activation	 intobl_r/activation	 extobl_r/activation	    abd_r/activation	    add_r/activation	hamstrings_r/activation	bifemsh_r/activation	glut_max_r/activation	iliopsoas_r/activation	rect_fem_r/activation	  vasti_r/activation	gastroc_r/activation	 soleus_r/activation	tib_ant_r/activation	 ercspn_l/activation	 intobl_l/activation	 extobl_l/activation	    abd_l/activation	    add_l/activation	hamstrings_l/activation	bifemsh_l/activation	glut_max_l/activation	iliopsoas_l/activation	rect_fem_l/activation	  vasti_l/activation	gastroc_l/activation	 soleus_l/activation	tib_ant_l/activation	
          1.26973197	         -2.45282592	          0.49788681	          8.68336328	          1.26973197	          0.87908948	         -0.01052403	         29.97465330	         -3.58022877	        -10.54540567	        -12.36278283	          4.30575892	          0.23858290	        -13.24537083	         -0.63235915	         -7.96266770	         -8.95763761	         11.68808796	         23.91247005	        -13.36682557	         -2.85318361	         -8.22280139	          0.04577820	          0.21729759	          0.01575368	          0.00999999	          0.31161541	          0.06211386	          0.02768377	          0.05813282	          0.15178846	          0.03112530	          0.02996827	          0.01468026	          0.01762537	          0.32984891	          0.05084015	          0.00999999	          0.00999999	          0.04644477	          0.00999999	          0.02544239	          0.16231903	          0.01468026	          0.01272009	          0.00999999	          0.00999999	          0.23187785	          0.25682120	          0.00999999	
          1.28242929	         -2.53100430	          0.45754829	          8.44521503	          1.28605630	          0.87699102	         -0.01006033	         29.71636612	         -3.41709422	        -10.64554361	        -13.60118087	          4.02384409	          0.22535401	        -13.86257216	         -0.81366517	         -8.62823347	         -9.70469471	         11.21303258	         25.42625613	        -12.85678508	         -2.24958319	         -8.32285934	          0.03778257	          0.20606426	          0.01300214	          0.03649588	          0.25718864	          0.06232617	          0.02284852	          0.05652807	          0.12527708	          0.02568896	          0.04812326	          0.01211621	          0.01454692	          0.36230135	          0.04634143	          0.00999999	          0.00999999	          0.03833272	          0.00999999	          0.02099862	          0.13396837	          0.01211621	          0.02155104	          0.00999999	          0.00999999	          0.19137805	          0.24187745	          0.00999999	
          1.29512661	         -2.59452320	          0.37227076	          8.15510575	          1.30262177	          0.87515707	         -0.00949401	         29.37119904	         -3.22219055	        -10.78472496	        -14.66876586	          3.54767218	          0.21410866	        -14.34784134	         -1.06126220	         -9.32611464	        -10.74051920	         10.63857705	         26.96515573	        -12.33278763	         -1.58195670	         -8.38351274	          0.03435269	          0.17007306	          0.01073119	          0.05608419	          0.22142406	          0.06449068	          0.01885780	          0.04665488	          0.10339617	          0.02120212	          0.11872617	          0.00999999	          0.01200615	          0.39722994	          0.04920274	          0.00999999	          0.00999999	          0.03163752	          0.00999999	          0.01733100	          0.11056945	          0.00999999	          0.01778693	          0.00999999	          0.00999999	          0.15795194	          0.22504387	          0.00999999	
          1.30782393	         -2.64444651	          0.25249188	          7.81738203	          1.31925365	          0.87377627	         -0.00881112	         28.96283036	         -2.99486214	        -11.01205330	        -15.64259978	          3.12609335	          0.18914375	        -14.62765517	         -1.37723362	        -10.05561060	        -12.16719239	          9.91112880	         28.54238066	        -11.81989783	         -0.86603078	         -8.40280817	          0.04085344	          0.14036808	          0.00999999	          0.09035984	          0.20229115	          0.06635184	          0.01556409	          0.03850613	          0.08533699	          0.01749896	          0.18593989	          0.00999999	          0.00999999	          0.41821012	          0.07399224	          0.00999999	          0.00999999	          0.02611171	          0.00999999	          0.01430397	          0.09125738	          0.00999999	          0.01468026	          0.00999999	          0.00999999	          0.13036404	          0.18959978	          0.00999999	
          1.32052125	         -2.68211631	          0.09523171	          7.44644806	          1.33579025	          0.87304269	         -0.00801052	         28.48177987	         -2.72122686	        -11.28003524	        -16.53295653	          2.94382820	          0.16328117	        -14.62646663	         -1.78416287	        -10.80701826	        -14.08629310	          8.98701701	         30.13078221	        -11.33578746	         -0.10437217	         -8.38437979	          0.03595381	          0.11585138	          0.00999999	          0.12389987	          0.17524130	          0.06524453	          0.01284567	          0.04308735	          0.07043202	          0.01444259	          0.23336614	          0.00999999	          0.00999999	          0.41997785	          0.11144189	          0.00999999	          0.00999999	          0.02155104	          0.00999999	          0.04113178	          0.07531836	          0.00999999	          0.01211621	          0.00999999	          0.01676154	          0.10759465	          0.15648427	          0.00999999	
          1.33321857	         -2.70911158	         -0.09729491	          7.05624254	          1.35205941	          0.87311833	         -0.00709491	         27.93645554	         -2.38755861	        -11.50161001	        -17.33100052	          2.99701576	          0.14279926	        -14.28599847	         -2.29904744	        -11.56677468	        -16.56027771	          7.80762182	         31.67322632	        -10.89834517	          0.69417154	         -8.33484791	          0.03427287	          0.09561677	          0.00999999	          0.14034527	          0.18087184	          0.06800878	          0.01060204	          0.03556171	          0.05813036	          0.01192004	          0.25363795	          0.00999999	          0.00999999	          0.40560488	          0.12006483	          0.00999999	          0.00999999	          0.01778693	          0.07522436	          0.08128997	          0.06216325	          0.01098081	          0.00999999	          0.00999999	          0.01468026	          0.08880216	          0.12915271	          0.00999999	
          1.34591589	         -2.72656675	         -0.30309681	          6.65653307	          1.36795381	          0.87402213	         -0.00608325	         27.31690796	         -2.00665764	        -11.63089199	        -18.00016427	          3.24578315	          0.13761338	        -13.56846532	         -2.91616568	        -12.33170268	        -19.62841891	          6.33587021	         33.05985378	        -10.52019287	          1.50183254	         -8.25827341	          0.02828677	          0.07891634	          0.00999999	          0.14626201	          0.18617396	          0.07307299	          0.00999999	          0.02935050	          0.04797731	          0.00999999	          0.26893631	          0.00999999	          0.00999999	          0.37194720	          0.11890295	          0.01403565	          0.00999999	          0.01468026	          0.15403557	          0.09001950	          0.05130581	          0.00999999	          0.00999999	          0.00999999	          0.01211621	          0.07329197	          0.10659489	          0.00999999	
          1.35861321	         -2.73520192	         -0.48810264	          6.25293815	          1.38341429	          0.87567775	         -0.00499838	         26.58958832	         -1.60648965	        -11.65433095	        -18.46352830	          3.61662800	          0.17518190	        -12.45965296	         -3.61672109	        -13.11462349	        -23.30411551	          4.64650371	         33.94152353	        -10.20994779	          2.27779900	         -8.15448773	          0.02334620	          0.06513280	          0.00999999	          0.14697645	          0.17688397	          0.07740259	          0.00999999	          0.02915362	          0.03959759	          0.00999999	          0.26813170	          0.00999999	          0.00999999	          0.33886458	          0.11679604	          0.02707007	          0.00999999	          0.01211621	          0.18838239	          0.07429669	          0.04234473	          0.00999999	          0.00999999	          0.00999999	          0.00999999	          0.06049078	          0.08797702	          0.02471050	
          1.37131053	         -2.73487575	         -0.61715730	          5.84620996	          1.39840069	          0.87794339	         -0.00386221	         25.73845587	         -1.22784685	        -11.59245869	        -18.67228658	          3.98039945	          0.27166647	        -10.95987597	         -4.38723569	        -13.92244104	        -27.62475625	          3.01269252	         33.65609428	         -9.97415486	          2.97991981	         -8.01753616	          0.01926855	          0.05375670	          0.00999999	          0.14749384	          0.17552773	          0.08279565	          0.00999999	          0.03588624	          0.03268147	          0.00999999	          0.25423418	          0.00999999	          0.00999999	          0.30984025	          0.10331002	          0.02234201	          0.00999999	          0.00999999	          0.26396358	          0.06132003	          0.03494880	          0.00999999	          0.00999999	          0.00999999	          0.00999999	          0.04992546	          0.07261094	          0.07360158	
          1.38400785	         -2.72450924	         -0.66369758	          5.43144074	          1.41288961	          0.88061067	         -0.00271816	         24.78749289	         -0.91294535	        -11.47046863	        -18.66937026	          4.31444742	          0.42572290	         -9.11590730	         -5.20437025	        -14.73663703	        -32.50571125	          1.54071831	         31.92201766	         -9.81554880	          3.58043851	         -7.83830189	          0.01590310	          0.04436755	          0.00999999	          0.14993541	          0.14487004	          0.08196390	          0.00999999	          0.05484613	          0.02697332	          0.00999999	          0.23834092	          0.00999999	          0.00999999	          0.28433867	          0.11917189	          0.03116231	          0.00999999	          0.00999999	          0.26079454	          0.05060987	          0.02884464	          0.00999999	          0.00999999	          0.00999999	          0.00999999	          0.04120547	          0.05992871	          0.14049110	
